<svg xmlns="http://www.w3.org/2000/svg" xmlns:xlink="http://www.w3.org/1999/xlink" height="20" width="111" iconWidth="0"><linearGradient id="b" x2="0" y2="100%"><stop offset="0" stop-color="#bbb" stop-opacity=".1"></stop><stop offset="1" stop-opacity=".1"></stop></linearGradient><clipPath id="a"><rect width="111" height="20" rx="3" fill="#fff"></rect></clipPath><g clip-path="url(#a)"><path fill="#555555" d="M0 0h55v20H0z"></path><path fill="#666666" d="M55 0h56v20H55z"></path><path fill="url(#b)" d="M0 0h111v20H0z"></path></g><g><path id="icon" d="M923.008 960H99.008q-15.008 0-25.504-10.496t-10.496-25.504V99.008q0-15.008 10.496-25.504t25.504-10.496 25.504 10.496 10.496 25.504V888h788q15.008 0 25.504 10.496t10.496 25.504-10.496 25.504-25.504 10.496z m-538.016-216.992q-19.008 0-30.016-16l-156.992-250.016q-8-12.992-4.992-27.488t15.488-22.496 27.008-4.992 22.496 15.008l112 182.016L416 442.048q4-16 19.008-23.008l182.016-88q12.992-6.016 26.016-2.496t20.992 15.488l91.008 148 134.016-403.008q4.992-14.016 18.016-20.992t27.008-2.016 20.992 18.016 2.016 27.008l-158.016 476.992q-7.008 22.016-30.016 24.512t-35.008-16.512l-115.008-186.016-136.992 66.016-62.016 240q-6.016 23.008-28.992 26.016-3.008 0.992-6.016 0.992z" fill="#FFFFFF" style="transform: scale(0.013); transform-origin: 5px 3px 0px;"></path></g><g fill="#fff" text-anchor="middle" font-family="DejaVu Sans,Verdana,Geneva,sans-serif" font-size="12"><text x="35" y="15" fill="#010101" fill-opacity=".3">build</text><text x="35" y="14">build</text><text x="83" y="15" fill="#010101" fill-opacity=".3">passing</text><text x="83" y="14">passing</text></g></svg>