<svg xmlns="http://www.w3.org/2000/svg" xmlns:xlink="http://www.w3.org/1999/xlink" height="20" width="111" iconWidth="0"><linearGradient id="b" x2="0" y2="100%"><stop offset="0" stop-color="#bbb" stop-opacity=".1"></stop><stop offset="1" stop-opacity=".1"></stop></linearGradient><clipPath id="a"><rect width="111" height="20" rx="3" fill="#fff"></rect></clipPath><g clip-path="url(#a)"><path fill="#555555" d="M0 0h55v20H0z"></path><path fill="#97CA00" d="M55 0h56v20H55z"></path><path fill="url(#b)" d="M0 0h111v20H0z"></path></g><g><path id="icon" d="M830.91911111 384.56888889L512.22755555 703.26044445V257.024h191.26044445l127.43111111 127.54488889z m191.14666667 0L512.22755555 894.40711111 2.27555555 384.56888889l254.976-254.976h509.952l254.86222223 254.976zM512.22755555 798.83377778L926.49244445 384.56888889l-191.14666667-191.26044444H289.10933333L97.84888889 384.56888889l414.37866666 414.26488889z" fill="#FFFFFF" style="transform: scale(0.013); transform-origin: 5px 3px 0px;"></path></g><g fill="#fff" text-anchor="middle" font-family="DejaVu Sans,Verdana,Geneva,sans-serif" font-size="12"><text x="35" y="15" fill="#010101" fill-opacity=".3">build</text><text x="35" y="14">build</text><text x="83" y="15" fill="#010101" fill-opacity=".3">passing</text><text x="83" y="14">passing</text></g></svg>