<svg xmlns="http://www.w3.org/2000/svg" xmlns:xlink="http://www.w3.org/1999/xlink" height="20" width="117" iconWidth="0"><linearGradient id="b" x2="0" y2="100%"><stop offset="0" stop-color="#bbb" stop-opacity=".1"></stop><stop offset="1" stop-opacity=".1"></stop></linearGradient><clipPath id="a"><rect width="117" height="20" rx="3" fill="#fff"></rect></clipPath><g clip-path="url(#a)"><path fill="#555555" d="M0 0h58v20H0z"></path><path fill="#44CC11" d="M58 0h59v20H58z"></path><path fill="url(#b)" d="M0 0h117v20H0z"></path></g><g><path id="icon" d="M511.6 1C229.155 1 0.1 230.055 0.1 512.5S229.155 1024 511.6 1024s511.5-229.055 511.5-511.5S794.045 1 511.6 1z m284.644 442.713l-257.75 256.75c-7.198 7.399-17.096 11.498-27.894 11.498-10.598 0-20.496-4.1-27.994-11.598l-255.75-255.75c-15.397-15.397-15.397-40.492 0-55.789 15.397-15.397 40.492-15.397 55.789 0L510.4 616.68l229.855-228.856c7.499-7.498 17.397-11.498 27.895-11.498 10.498 0 20.496 4.1 27.895 11.598 7.498 7.399 11.597 17.397 11.597 27.895s-4.099 20.396-11.398 27.894z" fill="#FFFFFF" style="transform: scale(0.013); transform-origin: 5px 3px 0px;"></path></g><g fill="#fff" text-anchor="middle" font-family="DejaVu Sans,Verdana,Geneva,sans-serif" font-size="12"><text x="36.5" y="15" fill="#010101" fill-opacity=".3">build</text><text x="36.5" y="14">build</text><text x="87.5" y="15" fill="#010101" fill-opacity=".3">passing</text><text x="87.5" y="14">passing</text></g></svg>