<svg xmlns="http://www.w3.org/2000/svg" xmlns:xlink="http://www.w3.org/1999/xlink" height="20" width="171"><linearGradient id="b" x2="0" y2="100%"><stop offset="0" stop-color="#bbb" stop-opacity=".1"></stop><stop offset="1" stop-opacity=".1"></stop></linearGradient><clipPath id="a"><rect width="171" height="20" rx="3" fill="#fff"></rect></clipPath><g clip-path="url(#a)"><path fill="#555555" d="M0 0h69v20H0z"></path><path fill="#46BC99" d="M69 0h102v20H69z"></path><path fill="url(#b)" d="M0 0h171v20H0z"></path></g><g><path id="icon" d="M924.6 125.2C815 31.8 652 48.6 551.4 152.4L512 193l-39.4-40.6C372.2 48.6 209 31.8 99.4 125.2c-125.6 107.2-132.2 299.6-19.8 415.8l387 399.6c25 25.8 65.6 25.8 90.6 0l387-399.6c112.6-116.2 106-308.6-19.6-415.8z" fill="#E05D44" style="transform: scale(0.013); transform-origin: 5px 3px 0px;"></path></g><g fill="#fff" text-anchor="middle" font-family="DejaVu Sans,Verdana,Geneva,sans-serif" font-size="12"><text x="42" y="15" fill="#010101" fill-opacity=".3">LPL-IG</text><text x="42" y="14">LPL-IG</text><text x="120" y="15" fill="#010101" fill-opacity=".3">牛逼🐂🍺🐂🍺</text><text x="120" y="14">牛逼🐂🍺🐂🍺</text></g></svg>